<svg width="279.249951171875px" height="124.42255859375px" xmlns="http://www.w3.org/2000/svg" viewBox="110.3750244140625 12.788720703125001 279.249951171875 124.42255859375" style="background: rgba(0, 0, 0, 0);" preserveAspectRatio="xMidYMid"><defs><filter id="editing-hole" x="-100%" y="-100%" width="300%" height="300%"><feFlood flood-color="#000" result="black"></feFlood><feMorphology operator="dilate" radius="2" in="SourceGraphic" result="erode"></feMorphology><feGaussianBlur in="erode" stdDeviation="4" result="blur"></feGaussianBlur><feOffset in="blur" dx="2" dy="2" result="offset"></feOffset><feComposite operator="atop" in="offset" in2="black" result="merge"></feComposite><feComposite operator="in" in="merge" in2="SourceGraphic" result="inner-shadow"></feComposite></filter></defs><g filter="url(#editing-hole)"><g transform="translate(154.12999868392944, 98.06999969482422)"><path d="M8.51 0L8.51-41.54L4.22-41.66L4.22-44.80L12.10-44.80L12.10 0L8.51 0ZM49.79 0L25.47-38.21L25.47 0L21.89 0L21.89-44.80L25.47-44.80L49.79-6.59L49.79-44.80L53.38-44.80L53.38 0L49.79 0ZM84.67 0L70.21-22.08L67.14-17.22L67.14 0L63.55 0L63.55-44.86L67.14-44.86L67.14-23.49L81.47-44.86L85.63-44.86L72.51-25.47L88.96 0L84.67 0ZM93.89 0L93.89-44.80L115.26-44.80L115.26-41.47L97.47-41.47L97.47-26.43L109.70-26.43L108.48-22.91L97.47-22.91L97.47-3.20L115.14-3.20L115.14 0L93.89 0ZM147.84 0L142.40-15.87L142.40-15.87Q141.25-15.68 139.84-15.68L139.84-15.68L127.23-15.68L127.23 0L123.65 0L123.65-44.80L139.39-44.80L139.39-44.80Q145.47-44.80 148.45-41.09L148.45-41.09L148.45-41.09Q151.42-37.38 151.42-31.10L151.42-31.10L151.42-31.10Q151.42-26.30 150.37-22.59L150.37-22.59L150.37-22.59Q149.31-18.88 145.79-16.96L145.79-16.96L151.49 0L147.84 0ZM139.90-19.20L139.90-19.20Q143.49-19.20 145.25-21.12L145.25-21.12L145.25-21.12Q147.01-23.04 147.42-25.47L147.42-25.47L147.42-25.47Q147.84-27.90 147.84-30.91L147.84-30.91L147.84-30.91Q147.84-36.16 145.66-38.78L145.66-38.78L145.66-38.78Q143.49-41.41 139.65-41.41L139.65-41.41L127.23-41.41L127.23-19.20L139.90-19.20ZM160.77-11.39L160.77-11.39Q160.96-9.22 162.40-7.23L162.40-7.23L162.40-7.23Q163.84-5.25 166.37-4L166.37-4L166.37-4Q168.90-2.75 172.16-2.75L172.16-2.75L172.16-2.75Q177.09-2.75 180.38-4.96L180.38-4.96L180.38-4.96Q183.68-7.17 183.68-11.97L183.68-11.97L183.68-11.97Q183.68-14.78 182.08-16.67L182.08-16.67L182.08-16.67Q180.48-18.56 178.11-19.68L178.11-19.68L178.11-19.68Q175.74-20.80 171.65-22.27L171.65-22.27L171.65-22.27Q167.23-23.81 164.58-25.12L164.58-25.12L164.58-25.12Q161.92-26.43 160.10-28.67L160.10-28.67L160.10-28.67Q158.27-30.91 158.27-34.43L158.27-34.43L158.27-34.43Q158.27-37.25 159.87-39.78L159.87-39.78L159.87-39.78Q161.47-42.30 164.70-43.87L164.70-43.87L164.70-43.87Q167.94-45.44 172.67-45.44L172.67-45.44L172.67-45.44Q175.81-45.44 177.86-44.99L177.86-44.99L177.86-44.99Q179.90-44.54 182.02-43.52L182.02-43.52L180.93-40.13L180.93-40.13Q177.28-41.98 172.80-41.98L172.80-41.98L172.80-41.98Q167.87-41.98 164.93-39.94L164.93-39.94L164.93-39.94Q161.98-37.89 161.98-34.24L161.98-34.24L161.98-34.24Q161.98-31.94 163.46-30.37L163.46-30.37L163.46-30.37Q164.93-28.80 167.07-27.84L167.07-27.84L167.07-27.84Q169.22-26.88 173.06-25.54L173.06-25.54L173.06-25.54Q177.73-23.94 180.61-22.56L180.61-22.56L180.61-22.56Q183.49-21.18 185.50-18.66L185.50-18.66L185.50-18.66Q187.52-16.13 187.52-12.29L187.52-12.29L187.52-12.29Q187.52-6.40 183.78-2.85L183.78-2.85L183.78-2.85Q180.03 0.70 172.22 0.70L172.22 0.70L172.22 0.70Q167.49 0.70 164.13-1.06L164.13-1.06L164.13-1.06Q160.77-2.82 159.01-5.60L159.01-5.60L159.01-5.60Q157.25-8.38 157.12-11.39L157.12-11.39L160.77-11.39Z" fill="#ccc"></path></g></g><style>text {
  font-size: 64px;
  font-family: Arial Black;
  dominant-baseline: central;
  text-anchor: middle;
}</style></svg>